<svg width="24" height="24" viewBox="0 0 24 24" fill="none" xmlns="http://www.w3.org/2000/svg">
<g id="Property 1=fluent:options-24-filled">
<path id="Vector" d="M8.74977 13.5C9.48139 13.5 10.1916 13.7468 10.7656 14.2005C11.3396 14.6542 11.7438 15.2882 11.9128 16H21.2498C21.4398 16.0001 21.6227 16.0722 21.7616 16.202C21.9004 16.3317 21.9848 16.5093 21.9978 16.6989C22.0107 16.8885 21.9513 17.0759 21.8313 17.2233C21.7114 17.3707 21.54 17.4671 21.3518 17.493L21.2498 17.5H11.9128C11.7437 18.2118 11.3395 18.8457 10.7655 19.2993C10.1916 19.753 9.48135 19.9997 8.74977 19.9997C8.01819 19.9997 7.30799 19.753 6.73401 19.2993C6.16004 18.8457 5.75584 18.2118 5.58677 17.5H2.74977C2.55975 17.4999 2.37683 17.4278 2.23798 17.298C2.09913 17.1683 2.0147 16.9907 2.00175 16.8011C1.98879 16.6115 2.04829 16.4241 2.1682 16.2767C2.28812 16.1293 2.45952 16.0329 2.64777 16.007L2.74977 16H5.58677C5.75578 15.2882 6.15996 14.6542 6.73394 14.2005C7.30792 13.7468 8.01815 13.5 8.74977 13.5ZM15.2498 4C15.9814 4.00002 16.6916 4.24681 17.2656 4.70048C17.8396 5.15415 18.2438 5.78817 18.4128 6.5H21.2498C21.4398 6.50006 21.6227 6.57224 21.7616 6.70197C21.9004 6.8317 21.9848 7.0093 21.9978 7.19888C22.0107 7.38846 21.9513 7.57589 21.8313 7.7233C21.7114 7.87071 21.54 7.9671 21.3518 7.993L21.2498 8H18.4128C18.2437 8.71178 17.8395 9.34573 17.2655 9.79934C16.6916 10.253 15.9814 10.4997 15.2498 10.4997C14.5182 10.4997 13.808 10.253 13.234 9.79934C12.66 9.34573 12.2558 8.71178 12.0868 8H2.74977C2.55975 7.99994 2.37683 7.92776 2.23798 7.79803C2.09913 7.6683 2.0147 7.4907 2.00175 7.30112C1.98879 7.11154 2.04829 6.92411 2.1682 6.7767C2.28812 6.62929 2.45952 6.5329 2.64777 6.507L2.74977 6.5H12.0868C12.2558 5.78817 12.66 5.15415 13.2339 4.70048C13.8079 4.24681 14.5181 4.00002 15.2498 4Z" fill="black"/>
</g>
</svg>
