<svg width="180" height="180" viewBox="0 0 180 180" fill="none" xmlns="http://www.w3.org/2000/svg">
<path d="M131.795 134.443C131.075 134.443 130.355 134.168 129.803 133.622L117.338 121.157C116.241 120.06 116.241 118.277 117.338 117.18C118.435 116.083 120.218 116.083 121.315 117.18L133.78 129.645C134.877 130.742 134.877 132.525 133.78 133.622C133.235 134.173 132.515 134.443 131.795 134.443Z" fill="#F2D1FF"/>
<path d="M160.312 174.375C156.561 174.375 153.028 172.912 150.368 170.257L130.68 150.57C128.025 147.909 126.562 144.383 126.562 140.625C126.562 136.867 128.025 133.341 130.68 130.68C135.776 125.584 145.468 125.584 150.564 130.68L170.252 150.368C172.913 153.028 174.375 156.555 174.375 160.312C174.375 164.07 172.912 167.597 170.257 170.257C167.602 172.918 164.064 174.375 160.312 174.375ZM140.625 132.3C138.336 132.3 136.164 133.155 134.657 134.663C133.065 136.254 132.188 138.375 132.188 140.625C132.188 142.875 133.065 144.996 134.657 146.593L154.344 166.281C157.534 169.464 163.086 169.464 166.275 166.281C167.872 164.683 168.75 162.562 168.75 160.312C168.75 158.062 167.872 155.942 166.281 154.344L146.593 134.657C145.086 133.155 142.914 132.3 140.625 132.3ZM73.125 140.625C35.9044 140.625 5.625 110.346 5.625 73.125C5.625 35.9044 35.9044 5.625 73.125 5.625C110.346 5.625 140.625 35.9044 140.625 73.125C140.625 110.346 110.346 140.625 73.125 140.625ZM73.125 11.25C39.0094 11.25 11.25 39.0094 11.25 73.125C11.25 107.241 39.0094 135 73.125 135C107.241 135 135 107.241 135 73.125C135 39.0094 107.241 11.25 73.125 11.25Z" fill="#F2D1FF"/>
<path d="M131.795 134.443C131.075 134.443 130.355 134.168 129.803 133.622L117.338 121.157C116.241 120.06 116.241 118.277 117.338 117.18C118.435 116.083 120.218 116.083 121.315 117.18L133.78 129.645C134.877 130.742 134.877 132.525 133.78 133.622C133.235 134.173 132.515 134.443 131.795 134.443Z" fill="#F2D1FF"/>
<path d="M160.312 174.375C156.561 174.375 153.028 172.912 150.368 170.257L130.68 150.57C128.025 147.909 126.562 144.383 126.562 140.625C126.562 136.867 128.025 133.341 130.68 130.68C135.776 125.584 145.468 125.584 150.564 130.68L170.252 150.368C172.913 153.028 174.375 156.555 174.375 160.312C174.375 164.07 172.912 167.597 170.257 170.257C167.602 172.918 164.064 174.375 160.312 174.375ZM140.625 132.3C138.336 132.3 136.164 133.155 134.657 134.663C133.065 136.254 132.188 138.375 132.188 140.625C132.188 142.875 133.065 144.996 134.657 146.593L154.344 166.281C157.534 169.464 163.086 169.464 166.275 166.281C167.872 164.683 168.75 162.562 168.75 160.312C168.75 158.062 167.872 155.942 166.281 154.344L146.593 134.657C145.086 133.155 142.914 132.3 140.625 132.3ZM73.125 140.625C35.9044 140.625 5.625 110.346 5.625 73.125C5.625 35.9044 35.9044 5.625 73.125 5.625C110.346 5.625 140.625 35.9044 140.625 73.125C140.625 110.346 110.346 140.625 73.125 140.625ZM73.125 11.25C39.0094 11.25 11.25 39.0094 11.25 73.125C11.25 107.241 39.0094 135 73.125 135C107.241 135 135 107.241 135 73.125C135 39.0094 107.241 11.25 73.125 11.25Z" fill="#F2D1FF"/>
<path d="M57.5624 54.0275C57.0909 53.5721 56.4594 53.3201 55.8039 53.3258C55.1484 53.3315 54.5214 53.5944 54.0579 54.0579C53.5944 54.5214 53.3314 55.1485 53.3258 55.804C53.3201 56.4595 53.572 57.091 54.0274 57.5625L68.4649 72L54.0249 86.4375C53.7862 86.6681 53.5957 86.9439 53.4647 87.249C53.3337 87.554 53.2647 87.882 53.2618 88.214C53.2589 88.5459 53.3222 88.8751 53.4479 89.1823C53.5736 89.4896 53.7592 89.7687 53.994 90.0034C54.2287 90.2382 54.5078 90.4238 54.8151 90.5495C55.1223 90.6752 55.4515 90.7385 55.7834 90.7356C56.1154 90.7327 56.4434 90.6637 56.7485 90.5327C57.0535 90.4017 57.3293 90.2112 57.5599 89.9725L71.9999 75.535L86.4374 89.9725C86.9089 90.4279 87.5405 90.6798 88.1959 90.6741C88.8514 90.6684 89.4785 90.4055 89.942 89.942C90.4055 89.4785 90.6684 88.8515 90.6741 88.196C90.6798 87.5405 90.4278 86.909 89.9724 86.4375L75.5349 72L89.9724 57.5625C90.4278 57.091 90.6798 56.4595 90.6741 55.804C90.6684 55.1485 90.4055 54.5214 89.942 54.0579C89.4785 53.5944 88.8514 53.3315 88.1959 53.3258C87.5405 53.3201 86.9089 53.5721 86.4374 54.0275L71.9999 68.465L57.5624 54.0275Z" fill="#F2D1FF"/>
</svg>
